<svg xmlns="http://www.w3.org/2000/svg" viewBox="0 0 252 255">
	<path fill="#2D6A4F" d="M252 153.34v80.126c0 11.88-9.638 21.534-21.496 21.534H21.496C9.638 255 0 245.345 0 233.466V127.5l127.266 63.75 101.726-52.107C239.528 133.795 252 141.509 252 153.34M127.32 21.558V127.5H0V21.558C0 9.65 9.636 0 21.527 0h84.265c11.891 0 21.527 9.65 21.527 21.558"/>
	<path fill="#40916C" fill-opacity=".829" d="M252 153.423c0-11.87-12.472-19.608-23.008-14.244l-101.726 52.273L0 127.5h226.205c14.244 0 25.795 11.608 25.795 25.923"/>
</svg>
